<?xml version="1.0" standalone="no"?>
<!DOCTYPE svg PUBLIC "-//W3C//DTD SVG 20010904//EN"
 "http://www.w3.org/TR/2001/REC-SVG-20010904/DTD/svg10.dtd">
<svg version="1.0" xmlns="http://www.w3.org/2000/svg"
 width="512.000000pt" height="512.000000pt" viewBox="0 0 512.000000 512.000000"
 preserveAspectRatio="xMidYMid meet">
<metadata>
Created by potrace 1.14, written by Peter Selinger 2001-2017
</metadata>
<g transform="translate(0.000000,512.000000) scale(0.100000,-0.100000)"
fill="#000000" stroke="none">
<path d="M2442 4860 c-73 -26 -144 -81 -185 -143 -22 -34 -52 -110 -86 -217
-29 -91 -56 -176 -61 -190 -5 -14 -45 -137 -88 -275 -44 -137 -110 -342 -146
-455 l-65 -206 -618 1 c-422 0 -634 -3 -668 -11 -125 -28 -222 -119 -265 -246
-18 -55 -22 -81 -17 -139 10 -122 60 -203 188 -301 30 -23 381 -300 419 -331
8 -7 47 -37 85 -67 39 -30 147 -115 240 -189 94 -74 171 -135 173 -136 1 -1
-22 -78 -53 -171 -30 -93 -75 -230 -99 -304 -24 -74 -93 -283 -152 -465 -101
-308 -108 -335 -108 -410 0 -69 4 -90 31 -147 34 -72 98 -142 154 -169 19 -9
47 -22 63 -30 18 -9 61 -14 115 -14 71 1 96 5 142 27 30 14 181 117 335 229
153 111 342 248 419 304 77 56 191 138 253 183 l112 82 353 -255 c193 -141
363 -265 377 -275 63 -47 328 -237 352 -253 36 -22 131 -47 183 -47 101 0 230
66 291 149 43 58 75 160 73 226 -2 45 -38 173 -112 395 -14 41 -78 237 -142
435 -64 198 -127 393 -141 434 -13 41 -21 77 -16 80 9 6 226 177 252 198 8 7
54 43 101 80 596 470 647 512 682 560 73 103 85 253 29 365 -50 98 -104 149
-202 189 -55 22 -58 22 -694 23 l-638 1 -38 120 c-21 66 -54 170 -73 230 -196
614 -262 820 -279 874 -37 119 -102 196 -208 247 -74 35 -191 42 -268 14z"/>
</g>
</svg>
